<mxfile host="Electron" agent="Mozilla/5.0 (Windows NT 10.0; Win64; x64) AppleWebKit/537.36 (KHTML, like Gecko) draw.io/28.0.6 Chrome/138.0.7204.100 Electron/37.2.3 Safari/537.36" version="28.0.6">
  <diagram name="Página-1" id="wizRxSN2ornJCtSF4mQO">
    <mxGraphModel dx="1426" dy="849" grid="1" gridSize="10" guides="1" tooltips="1" connect="1" arrows="1" fold="1" page="1" pageScale="1" pageWidth="827" pageHeight="1169" math="0" shadow="0">
      <root>
        <mxCell id="0" />
        <mxCell id="1" parent="0" />
        <mxCell id="Tl4ql0KHb_1g4jwyOZ_s-4" value="GymPlanningAi" style="swimlane;whiteSpace=wrap;html=1;" vertex="1" parent="1">
          <mxGeometry x="114" y="170" width="200" height="810" as="geometry" />
        </mxCell>
        <mxCell id="Tl4ql0KHb_1g4jwyOZ_s-5" value="GymUserService" style="swimlane;whiteSpace=wrap;html=1;" vertex="1" parent="1">
          <mxGeometry x="314" y="170" width="200" height="810" as="geometry" />
        </mxCell>
        <mxCell id="Tl4ql0KHb_1g4jwyOZ_s-6" value="GymAIService" style="swimlane;whiteSpace=wrap;html=1;" vertex="1" parent="1">
          <mxGeometry x="514" y="170" width="200" height="810" as="geometry" />
        </mxCell>
        <mxCell id="Tl4ql0KHb_1g4jwyOZ_s-8" value="" style="swimlane;startSize=0;" vertex="1" parent="1">
          <mxGeometry x="74" y="130" width="680" height="910" as="geometry" />
        </mxCell>
        <mxCell id="Tl4ql0KHb_1g4jwyOZ_s-10" value="Fluxo para gerar um treino para um usuário." style="text;html=1;align=center;verticalAlign=middle;whiteSpace=wrap;rounded=0;" vertex="1" parent="Tl4ql0KHb_1g4jwyOZ_s-8">
          <mxGeometry x="40" width="260" height="40" as="geometry" />
        </mxCell>
        <mxCell id="Tl4ql0KHb_1g4jwyOZ_s-17" style="edgeStyle=orthogonalEdgeStyle;rounded=0;orthogonalLoop=1;jettySize=auto;html=1;exitX=1;exitY=0.5;exitDx=0;exitDy=0;entryX=0;entryY=0.5;entryDx=0;entryDy=0;" edge="1" parent="Tl4ql0KHb_1g4jwyOZ_s-8" source="Tl4ql0KHb_1g4jwyOZ_s-12" target="Tl4ql0KHb_1g4jwyOZ_s-16">
          <mxGeometry relative="1" as="geometry" />
        </mxCell>
        <mxCell id="Tl4ql0KHb_1g4jwyOZ_s-12" value="Requisitar dados do usuário como: Usuario e senha" style="shape=parallelogram;perimeter=parallelogramPerimeter;whiteSpace=wrap;html=1;fixedSize=1;" vertex="1" parent="Tl4ql0KHb_1g4jwyOZ_s-8">
          <mxGeometry x="50" y="200" width="180" height="70" as="geometry" />
        </mxCell>
        <mxCell id="Tl4ql0KHb_1g4jwyOZ_s-7" value="Inicio" style="ellipse;whiteSpace=wrap;html=1;aspect=fixed;" vertex="1" parent="Tl4ql0KHb_1g4jwyOZ_s-8">
          <mxGeometry x="105" y="90" width="70" height="70" as="geometry" />
        </mxCell>
        <mxCell id="Tl4ql0KHb_1g4jwyOZ_s-13" style="edgeStyle=orthogonalEdgeStyle;rounded=0;orthogonalLoop=1;jettySize=auto;html=1;exitX=0.5;exitY=1;exitDx=0;exitDy=0;entryX=0.5;entryY=0;entryDx=0;entryDy=0;" edge="1" parent="Tl4ql0KHb_1g4jwyOZ_s-8" source="Tl4ql0KHb_1g4jwyOZ_s-7" target="Tl4ql0KHb_1g4jwyOZ_s-12">
          <mxGeometry relative="1" as="geometry" />
        </mxCell>
        <mxCell id="Tl4ql0KHb_1g4jwyOZ_s-19" style="edgeStyle=orthogonalEdgeStyle;rounded=0;orthogonalLoop=1;jettySize=auto;html=1;entryX=0.5;entryY=0;entryDx=0;entryDy=0;" edge="1" parent="Tl4ql0KHb_1g4jwyOZ_s-8" source="Tl4ql0KHb_1g4jwyOZ_s-16" target="Tl4ql0KHb_1g4jwyOZ_s-18">
          <mxGeometry relative="1" as="geometry" />
        </mxCell>
        <mxCell id="Tl4ql0KHb_1g4jwyOZ_s-16" value="Validar dados do usuario." style="rounded=0;whiteSpace=wrap;html=1;" vertex="1" parent="Tl4ql0KHb_1g4jwyOZ_s-8">
          <mxGeometry x="280" y="205" width="120" height="60" as="geometry" />
        </mxCell>
        <mxCell id="Tl4ql0KHb_1g4jwyOZ_s-22" style="edgeStyle=orthogonalEdgeStyle;rounded=0;orthogonalLoop=1;jettySize=auto;html=1;exitX=0;exitY=0.5;exitDx=0;exitDy=0;entryX=1;entryY=0.5;entryDx=0;entryDy=0;" edge="1" parent="Tl4ql0KHb_1g4jwyOZ_s-8" source="Tl4ql0KHb_1g4jwyOZ_s-18" target="Tl4ql0KHb_1g4jwyOZ_s-21">
          <mxGeometry relative="1" as="geometry" />
        </mxCell>
        <mxCell id="Tl4ql0KHb_1g4jwyOZ_s-23" value="Não" style="edgeLabel;html=1;align=center;verticalAlign=middle;resizable=0;points=[];" vertex="1" connectable="0" parent="Tl4ql0KHb_1g4jwyOZ_s-22">
          <mxGeometry x="-0.68" relative="1" as="geometry">
            <mxPoint as="offset" />
          </mxGeometry>
        </mxCell>
        <mxCell id="Tl4ql0KHb_1g4jwyOZ_s-29" style="edgeStyle=orthogonalEdgeStyle;rounded=0;orthogonalLoop=1;jettySize=auto;html=1;exitX=0.5;exitY=1;exitDx=0;exitDy=0;entryX=0.5;entryY=0;entryDx=0;entryDy=0;" edge="1" parent="Tl4ql0KHb_1g4jwyOZ_s-8" source="Tl4ql0KHb_1g4jwyOZ_s-18" target="Tl4ql0KHb_1g4jwyOZ_s-26">
          <mxGeometry relative="1" as="geometry" />
        </mxCell>
        <mxCell id="Tl4ql0KHb_1g4jwyOZ_s-18" value="Valido?" style="rhombus;whiteSpace=wrap;html=1;" vertex="1" parent="Tl4ql0KHb_1g4jwyOZ_s-8">
          <mxGeometry x="300" y="320" width="80" height="80" as="geometry" />
        </mxCell>
        <mxCell id="Tl4ql0KHb_1g4jwyOZ_s-25" style="edgeStyle=orthogonalEdgeStyle;rounded=0;orthogonalLoop=1;jettySize=auto;html=1;exitX=0.5;exitY=1;exitDx=0;exitDy=0;entryX=0.5;entryY=0;entryDx=0;entryDy=0;" edge="1" parent="Tl4ql0KHb_1g4jwyOZ_s-8" source="Tl4ql0KHb_1g4jwyOZ_s-21" target="Tl4ql0KHb_1g4jwyOZ_s-24">
          <mxGeometry relative="1" as="geometry" />
        </mxCell>
        <mxCell id="Tl4ql0KHb_1g4jwyOZ_s-21" value="Informar ao usuário que os dados não sao validos." style="rounded=0;whiteSpace=wrap;html=1;" vertex="1" parent="Tl4ql0KHb_1g4jwyOZ_s-8">
          <mxGeometry x="80" y="330" width="120" height="60" as="geometry" />
        </mxCell>
        <mxCell id="Tl4ql0KHb_1g4jwyOZ_s-24" value="Fim" style="ellipse;whiteSpace=wrap;html=1;aspect=fixed;" vertex="1" parent="Tl4ql0KHb_1g4jwyOZ_s-8">
          <mxGeometry x="105" y="440" width="70" height="70" as="geometry" />
        </mxCell>
        <mxCell id="Tl4ql0KHb_1g4jwyOZ_s-31" style="edgeStyle=orthogonalEdgeStyle;rounded=0;orthogonalLoop=1;jettySize=auto;html=1;exitX=1;exitY=0.5;exitDx=0;exitDy=0;entryX=0;entryY=0.5;entryDx=0;entryDy=0;" edge="1" parent="Tl4ql0KHb_1g4jwyOZ_s-8" source="Tl4ql0KHb_1g4jwyOZ_s-26" target="Tl4ql0KHb_1g4jwyOZ_s-30">
          <mxGeometry relative="1" as="geometry" />
        </mxCell>
        <mxCell id="Tl4ql0KHb_1g4jwyOZ_s-26" value="Buscar as prefencias do usuários antes registradas e enviar para AI Service" style="rounded=0;whiteSpace=wrap;html=1;" vertex="1" parent="Tl4ql0KHb_1g4jwyOZ_s-8">
          <mxGeometry x="250" y="445" width="180" height="60" as="geometry" />
        </mxCell>
        <mxCell id="Tl4ql0KHb_1g4jwyOZ_s-34" style="edgeStyle=orthogonalEdgeStyle;rounded=0;orthogonalLoop=1;jettySize=auto;html=1;exitX=0.5;exitY=1;exitDx=0;exitDy=0;" edge="1" parent="Tl4ql0KHb_1g4jwyOZ_s-8" source="Tl4ql0KHb_1g4jwyOZ_s-30" target="Tl4ql0KHb_1g4jwyOZ_s-33">
          <mxGeometry relative="1" as="geometry" />
        </mxCell>
        <mxCell id="Tl4ql0KHb_1g4jwyOZ_s-30" value="Enviar para API de AI o prompt com os dados de preferencia do usuário." style="rounded=0;whiteSpace=wrap;html=1;" vertex="1" parent="Tl4ql0KHb_1g4jwyOZ_s-8">
          <mxGeometry x="480" y="445" width="120" height="60" as="geometry" />
        </mxCell>
        <mxCell id="Tl4ql0KHb_1g4jwyOZ_s-38" value="" style="edgeStyle=orthogonalEdgeStyle;rounded=0;orthogonalLoop=1;jettySize=auto;html=1;" edge="1" parent="Tl4ql0KHb_1g4jwyOZ_s-8" source="Tl4ql0KHb_1g4jwyOZ_s-33" target="Tl4ql0KHb_1g4jwyOZ_s-37">
          <mxGeometry relative="1" as="geometry" />
        </mxCell>
        <mxCell id="Tl4ql0KHb_1g4jwyOZ_s-33" value="Tratar os dados da AI e enviar para o usuário&amp;nbsp;" style="rounded=0;whiteSpace=wrap;html=1;" vertex="1" parent="Tl4ql0KHb_1g4jwyOZ_s-8">
          <mxGeometry x="460" y="632.5" width="160" height="50" as="geometry" />
        </mxCell>
        <mxCell id="Tl4ql0KHb_1g4jwyOZ_s-40" value="" style="edgeStyle=orthogonalEdgeStyle;rounded=0;orthogonalLoop=1;jettySize=auto;html=1;" edge="1" parent="Tl4ql0KHb_1g4jwyOZ_s-8" source="Tl4ql0KHb_1g4jwyOZ_s-37" target="Tl4ql0KHb_1g4jwyOZ_s-39">
          <mxGeometry relative="1" as="geometry" />
        </mxCell>
        <mxCell id="Tl4ql0KHb_1g4jwyOZ_s-41" value="Sim" style="edgeLabel;html=1;align=center;verticalAlign=middle;resizable=0;points=[];" vertex="1" connectable="0" parent="Tl4ql0KHb_1g4jwyOZ_s-40">
          <mxGeometry x="-0.287" y="1" relative="1" as="geometry">
            <mxPoint y="1" as="offset" />
          </mxGeometry>
        </mxCell>
        <mxCell id="Tl4ql0KHb_1g4jwyOZ_s-42" style="edgeStyle=orthogonalEdgeStyle;rounded=0;orthogonalLoop=1;jettySize=auto;html=1;exitX=0.5;exitY=0;exitDx=0;exitDy=0;entryX=0.5;entryY=1;entryDx=0;entryDy=0;" edge="1" parent="Tl4ql0KHb_1g4jwyOZ_s-8" source="Tl4ql0KHb_1g4jwyOZ_s-37" target="Tl4ql0KHb_1g4jwyOZ_s-24">
          <mxGeometry relative="1" as="geometry" />
        </mxCell>
        <mxCell id="Tl4ql0KHb_1g4jwyOZ_s-43" value="Não" style="edgeLabel;html=1;align=center;verticalAlign=middle;resizable=0;points=[];" vertex="1" connectable="0" parent="Tl4ql0KHb_1g4jwyOZ_s-42">
          <mxGeometry x="0.14" y="1" relative="1" as="geometry">
            <mxPoint as="offset" />
          </mxGeometry>
        </mxCell>
        <mxCell id="Tl4ql0KHb_1g4jwyOZ_s-37" value="Usuário aceita recomendação" style="rhombus;whiteSpace=wrap;html=1;rounded=0;" vertex="1" parent="Tl4ql0KHb_1g4jwyOZ_s-8">
          <mxGeometry x="87.5" y="610" width="105" height="95" as="geometry" />
        </mxCell>
        <mxCell id="Tl4ql0KHb_1g4jwyOZ_s-39" value="Salvar dados no banco de dados relacionando a este usuario." style="whiteSpace=wrap;html=1;rounded=0;" vertex="1" parent="Tl4ql0KHb_1g4jwyOZ_s-8">
          <mxGeometry x="80" y="762.5" width="120" height="60" as="geometry" />
        </mxCell>
      </root>
    </mxGraphModel>
  </diagram>
</mxfile>
